<?xml version="1.0" encoding="UTF-8"?>
<svg version="1.1" xmlns="http://www.w3.org/2000/svg" width="961" height="1535">
<path d="M0 0 C6.62770236 5.73687956 12.72613833 12.04342915 18.91294086 18.24680352 C20.51785918 19.84869846 22.12321066 21.45015953 23.72895569 23.05122578 C28.12483965 27.43684504 32.51448948 31.82865754 36.90310144 36.22155213 C41.15596065 40.4766274 45.41350504 44.72700656 49.67087597 48.9775664 C59.44939258 58.74086793 69.22116141 68.51090425 78.99083751 78.28305097 C86.53751124 85.83155973 94.08598356 93.37826567 101.63572109 100.92371011 C102.7216658 102.00905241 103.80760992 103.09439533 104.89355342 104.17973884 C106.5301227 105.81540083 108.16669267 107.45106213 109.80326649 109.08671956 C125.01354429 124.2885714 140.2217792 139.49246453 155.42575729 154.70061707 C155.99855237 155.27356853 156.57134745 155.84651998 157.16149995 156.4368336 C160.06441778 159.34055718 162.96731559 162.24430076 165.87020539 165.14805235 C166.73493584 166.01303942 166.73493584 166.01303942 167.61713558 166.89550098 C168.78293139 168.06164345 169.94872626 169.22778685 171.1145202 170.39393119 C189.24924273 188.53400942 207.39059399 206.6674346 225.5372237 224.79560113 C245.94207566 245.17971643 266.34190316 265.56884112 286.73438209 285.96533501 C288.91070884 288.14205708 291.08705248 290.31876227 293.26340663 292.49545693 C293.79924551 293.03138655 294.33508439 293.56731616 294.88716082 294.11948606 C302.96080725 302.19429632 311.0383429 310.2652021 319.11787975 318.33411813 C328.31213986 327.51630413 337.50110191 336.7037547 346.68313735 345.8981659 C351.36517169 350.58622894 356.0497063 355.27174046 360.74075878 359.95078492 C365.04103769 364.24018418 369.33424222 368.53653795 373.62208248 372.83837031 C375.16848428 374.38741328 376.71738258 375.93396921 378.26911765 377.47766961 C401.36161069 400.45894098 417.92984305 424.09943939 418.32897174 457.86103082 C418.21899164 480.59773486 410.65457433 502.12932331 396.01647174 519.61103082 C395.48408893 520.27747613 394.95170612 520.94392144 394.40319049 521.63056207 C380.22396468 538.78776371 358.39636017 550.59163823 336.2884444 553.39569879 C310.58644141 555.83167199 286.02940758 551.17045289 265.01647174 535.61103082 C253.75417516 526.05821551 243.54182013 515.26732718 233.12342858 504.81939423 C230.44856353 502.13808589 227.77072883 499.45974605 225.09325397 496.78104424 C220.46738124 492.15230104 215.84328314 487.52179131 211.22036922 482.89009309 C204.53602127 476.19313675 197.84838781 469.49946886 191.15987846 462.80666896 C180.30456576 451.94430939 169.45112607 441.08008057 158.59923542 430.2143023 C157.95133911 429.56557818 157.3034428 428.91685406 156.63591328 428.24847164 C152.03355175 423.64020566 147.4312566 419.03187337 142.82897174 414.42353082 C137.55257391 409.14019564 132.276139 403.8568975 126.99962604 398.5736773 C126.34919209 397.92241523 125.69875815 397.27115316 125.02861408 396.60015587 C114.20108609 385.75896419 103.37161069 374.91971986 92.5407334 364.08187431 C85.86328735 357.39994094 79.18762941 350.71623048 72.51424476 344.03024086 C67.95266744 339.46026727 63.38934994 334.89203641 58.82463048 330.32520137 C56.18826373 327.68748409 53.55275095 325.04892709 50.91939342 322.40820527 C48.07228342 319.55316261 45.22138207 316.70193707 42.37006366 313.85109735 C41.52904426 313.00648299 40.68802487 312.16186863 39.82152003 311.29165989 C39.06406574 310.53557995 38.30661144 309.7795 37.52620399 309.00050855 C36.86781856 308.34120133 36.20943314 307.68189411 35.53109664 307.00260788 C34.23654682 305.4982705 34.23654682 305.4982705 33.01647174 305.61103082 C33.01622754 306.58501939 33.01598334 307.55900797 33.01573174 308.56251135 C33.00733963 341.91258773 32.99805999 375.26266384 32.98815143 408.6127398 C32.98795189 409.28461671 32.98775235 409.95649362 32.98754676 410.64873043 C32.96613842 482.65025185 32.93888869 554.65176825 32.89983356 626.6532824 C32.89896738 628.25288621 32.89810121 629.85249001 32.89723505 631.45209381 C32.87903562 665.0292426 32.86001504 698.60639087 32.84004605 732.18353865 C32.83001562 749.05080671 32.82014297 765.91807485 32.8104195 782.78534309 C32.80895185 785.32968438 32.80747969 787.87402567 32.80600734 790.41836696 C32.78337882 829.59106684 32.76413095 868.76376479 32.75469196 907.93647027 C32.75448899 908.77852301 32.75428603 909.62057576 32.75407691 910.48814525 C32.75082515 924.06426464 32.74785748 937.64038409 32.74492752 951.21650355 C32.73648254 990.32667751 32.72593195 1029.43684581 32.70148838 1068.54701352 C32.70098658 1069.35152878 32.70048479 1070.15604405 32.69996779 1070.98493856 C32.68891367 1088.64732619 32.6767795 1106.30971292 32.66362316 1123.97209911 C32.65834826 1131.07918598 32.65322879 1138.18627297 32.64816272 1145.29335999 C32.64732542 1146.46010898 32.64732542 1146.46010898 32.6464712 1147.65042865 C32.6285724 1172.69933286 32.62331861 1197.74822009 32.624718 1222.79713007 C32.62607002 1248.03644094 32.61497809 1273.27571337 32.5866694 1298.51500937 C32.58275749 1302.00553156 32.57898779 1305.49605388 32.57530391 1308.98657632 C32.57457664 1309.67079767 32.57384938 1310.35501902 32.57310007 1311.05997435 C32.56129182 1322.53654557 32.56527987 1334.01306038 32.5735 1345.48963332 C32.57956153 1355.48041645 32.57114513 1365.47111976 32.55097945 1375.4618842 C32.53990354 1381.15426478 32.53510083 1386.84645756 32.5479593 1392.53883868 C32.5595477 1397.72396599 32.55256672 1402.9087336 32.53117105 1408.09382669 C32.52668833 1409.95171154 32.52879581 1411.80962792 32.53855098 1413.66749256 C32.67681616 1442.12697413 23.06807013 1465.76293286 3.45397174 1486.61103082 C-16.95041698 1506.51469834 -42.5231562 1513.08486284 -70.30384076 1512.82587457 C-95.06208583 1512.27302055 -117.93842257 1499.74397081 -134.86634076 1482.07196832 C-149.21131658 1465.39791892 -159.18465657 1443.90467516 -159.10772675 1421.66513097 C-159.10964388 1420.48386537 -159.10964388 1420.48386537 -159.11159974 1419.27873582 C-159.11467091 1416.63061569 -159.11059533 1413.98255483 -159.10657609 1411.33443666 C-159.10731559 1409.41224784 -159.10849404 1407.49005916 -159.11007258 1405.56787086 C-159.11314997 1400.25880843 -159.10995954 1394.94976506 -159.10579445 1389.64070405 C-159.10236766 1383.87516664 -159.10472963 1378.10963122 -159.10637194 1372.34409344 C-159.10844865 1362.23046355 -159.10679684 1352.11683952 -159.10273373 1342.00321031 C-159.09838558 1331.14999407 -159.0961609 1320.29678083 -159.09663594 1309.4435637 C-159.09666463 1308.75842798 -159.09669332 1308.07329227 -159.09672288 1307.36739486 C-159.09687926 1303.87397332 -159.0970712 1300.38055178 -159.09727572 1296.88713024 C-159.09868377 1271.59196211 -159.09525047 1246.29679648 -159.08925831 1221.00162911 C-159.08333759 1195.94821051 -159.07948357 1170.89479298 -159.0784055 1145.84137368 C-159.07835388 1144.67465018 -159.07835388 1144.67465018 -159.07830122 1143.48435651 C-159.07798803 1136.38029821 -159.07770033 1129.27623991 -159.07744325 1122.17218162 C-159.07680382 1104.51160978 -159.07584447 1086.85103797 -159.07466805 1069.19046617 C-159.07461473 1068.38620722 -159.07456141 1067.58194828 -159.07450648 1066.75331786 C-159.07188442 1027.62255511 -159.06557663 988.49179306 -159.05896771 949.36103082 C-159.05667607 935.780322 -159.05440071 922.19961318 -159.05219281 908.61890435 C-159.05198738 907.35550377 -159.05198738 907.35550377 -159.05177781 906.06657995 C-159.04543473 866.91796948 -159.04170846 827.76935889 -159.03865801 788.62074805 C-159.03845995 786.07945806 -159.03826076 783.53816808 -159.03806133 780.9968781 C-159.03674156 764.1557377 -159.03546691 747.31459731 -159.03422247 730.47345691 C-159.03174592 696.96323888 -159.02900423 663.45302088 -159.02608043 629.94280289 C-159.02594119 628.34692806 -159.02580213 626.75105322 -159.02566326 625.15517839 C-159.0194095 553.30468744 -159.01007134 481.45419701 -158.9993974 409.6037066 C-158.99929746 408.93086994 -158.99919753 408.25803328 -158.99909456 407.56480763 C-158.99409401 373.91354866 -158.98891749 340.26228972 -158.98352826 306.61103082 C-163.18754825 310.25000625 -167.37336051 313.8734789 -171.29936326 317.81499124 C-172.0584546 318.57455833 -172.81754595 319.33412543 -173.59964007 320.11670971 C-174.40655038 320.92926133 -175.21346068 321.74181296 -176.04482281 322.57898736 C-176.92312203 323.45925442 -177.80142125 324.33952148 -178.7063356 325.2464633 C-180.62151743 327.16667429 -182.53574737 329.08777967 -184.44838727 331.01051736 C-187.56193209 334.14049402 -190.67901864 337.26692884 -193.79650128 340.39298272 C-198.32345576 344.933024 -202.8487805 349.47468431 -207.37320912 354.01724267 C-214.53577723 361.20811846 -221.70420397 368.39313855 -228.87364972 375.57715631 C-231.33133538 378.03996571 -233.78899583 380.50280027 -236.24665749 382.96563363 C-236.86078054 383.58104272 -237.4749036 384.1964518 -238.10763644 384.83050965 C-245.08862897 391.8262173 -252.06873571 398.82280832 -259.04822552 405.82001519 C-259.68573964 406.45914406 -260.32325377 407.09827292 -260.9800865 407.75676933 C-271.30079055 418.10398412 -281.61585362 428.45680721 -291.92928851 438.81126675 C-302.54094812 449.46477425 -313.16034976 460.11052254 -323.7864452 470.7496314 C-330.32722809 477.29897404 -336.86177048 483.85441719 -343.38822442 490.41803935 C-347.86856927 494.9228057 -352.35632617 499.42010101 -356.84978808 503.91178295 C-359.43501068 506.49643228 -362.0169812 509.08410904 -364.59002316 511.68088937 C-388.67730472 535.97991248 -411.69569716 552.89358413 -447.29602826 553.92353082 C-461.67810239 553.62390427 -474.83381839 550.26526108 -487.98352826 544.61103082 C-488.89489544 544.23204644 -489.80626263 543.85306207 -490.74524701 543.46259332 C-505.9771254 536.54570168 -519.14022689 523.56752065 -527.98352826 509.61103082 C-528.56876263 508.73189019 -529.15399701 507.85274957 -529.75696576 506.94696832 C-543.0233739 485.91768379 -546.1430888 459.8297165 -541.01868451 435.73993707 C-535.21878206 411.37113143 -519.95160627 394.26564418 -502.64232647 377.03604913 C-501.07255806 375.4661245 -499.50323163 373.89575783 -497.93430728 372.32498968 C-493.63777452 368.02593308 -489.33505413 363.73311701 -485.03128052 359.44131088 C-480.86250831 355.28215265 -476.69847536 351.11825857 -472.53433327 346.95446548 C-464.01918599 338.44033686 -455.49947284 329.93079133 -446.97719395 321.42380166 C-438.53824146 312.99992926 -430.10159691 304.57375557 -421.66791737 296.14460397 C-421.14267138 295.61964059 -420.6174254 295.0946772 -420.07626287 294.55380584 C-417.40845496 291.88740258 -414.74069334 289.22095302 -412.07295305 286.55448212 C-393.18943559 267.68004701 -374.30166373 248.80987482 -355.41101849 229.94257379 C-354.26953009 228.80249295 -353.12804178 227.66241203 -351.98655356 226.52233101 C-351.42097893 225.95745399 -350.85540431 225.39257697 -350.27269106 224.81058246 C-347.41134722 221.95276742 -344.55000565 219.09495011 -341.68866742 216.23712945 C-340.83759575 215.38710547 -340.83759575 215.38710547 -339.96933071 214.51990929 C-326.78710109 201.3538641 -313.60615513 188.18653415 -300.42566693 175.01874566 C-299.86095933 174.45458418 -299.29625174 173.8904227 -298.7144318 173.30916542 C-285.81886892 160.42605119 -272.92390377 147.54233907 -260.03011429 134.65744996 C-259.48806257 134.11577363 -258.94601084 133.5740973 -258.38753331 133.01600653 C-253.51124754 128.14308736 -248.6349858 123.27014413 -243.75885076 118.39707412 C-231.60406549 106.24993244 -219.44780373 94.10427465 -207.28787225 81.96228443 C-198.8160686 73.5029703 -190.34588168 65.0420406 -181.87741166 56.5793892 C-177.29056069 51.99587085 -172.70286369 47.41320729 -168.11295712 42.83274865 C-163.91092126 38.63934691 -159.71119631 34.44364511 -155.5132863 30.2461132 C-153.99477916 28.72857133 -152.47541758 27.21188386 -150.95511376 25.69614194 C-148.88677985 23.63377637 -146.82158405 21.5683169 -144.75711739 19.50208116 C-144.168142 18.91630447 -143.57916661 18.33052779 -142.97234347 17.7270003 C-139.32336598 14.06668571 -135.87765317 10.27343785 -132.5055261 6.35642297 C-121.52510871 -6.23566736 -106.62831376 -14.14039598 -90.98352826 -19.38896918 C-89.97032513 -19.72928168 -88.95712201 -20.06959418 -87.91321576 -20.42021918 C-56.81115637 -28.83882172 -24.51238101 -19.79957214 0 0 Z " fill="#74B2E1" transform="translate(542.9835282564163,22.38896918296814)"/>
</svg>
