<?xml version="1.0" standalone="no"?>
<!DOCTYPE svg PUBLIC "-//W3C//DTD SVG 20010904//EN"
 "http://www.w3.org/TR/2001/REC-SVG-20010904/DTD/svg10.dtd">
<svg version="1.0" xmlns="http://www.w3.org/2000/svg"
 width="961.000000pt" height="1535.000000pt" viewBox="0 0 961.000000 1535.000000"
 preserveAspectRatio="xMidYMid meet">

<g transform="translate(0.000000,1535.000000) scale(0.100000,-0.100000)"
fill="#000000" stroke="none">
<path d="M4595 15334 c-101 -23 -209 -67 -300 -123 -71 -44 -312 -282 -2072
-2043 -1096 -1096 -2011 -2018 -2033 -2048 -156 -208 -220 -476 -175 -733 35
-203 142 -398 293 -539 331 -306 829 -340 1202 -80 41 28 488 467 1190 1168
619 618 1129 1124 1133 1124 4 0 8 -2537 9 -5637 l3 -5638 27 -85 c57 -182
128 -302 247 -421 149 -148 321 -238 515 -269 119 -20 321 -8 429 24 314 94
554 333 654 653 l28 88 2 5640 c2 3102 5 5646 8 5654 4 10 396 -375 1168
-1145 868 -866 1176 -1168 1219 -1193 96 -56 215 -102 316 -123 80 -16 121
-19 232 -15 259 10 454 94 636 275 113 112 181 220 231 367 99 292 54 608
-125 865 -63 91 -3949 3982 -4056 4061 -98 72 -217 132 -321 160 -107 29 -356
36 -460 13z"/>
</g>
</svg>
